<svg width="176" height="41" viewBox="0 0 505 118" xmlns="http://www.w3.org/2000/svg">
	<g>
		<g>
			<path d="m102.2,15.5c-9.4,-9.3 -21.9,-14.5 -35.1,-14.5l-16.9,0c-27.4,0 -49.7,22.3 -49.7,49.6l0,16.9c0,13.3 5.2,25.7 14.6,35.1c9.4,9.4 21.8,14.5 35.1,14.5l16.9,0c13.2,0 25.7,-5.2 35.1,-14.5c9.4,-9.4 14.5,-21.8 14.5,-35.1l0,-16.9c0,-13.2 -5.1,-25.7 -14.5,-35.1zm-84,35.1c0,-8.5 3.3,-16.5 9.3,-22.6c6,-6 14,-9.4 22.6,-9.4l16.9,0c8.5,0 16.5,3.3 22.6,9.4c1.9,1.9 3.6,4.1 4.9,6.3l-24.8,0c-6.4,0.4 -12.1,3.3 -16,7.7l-24.7,30c-1,1.3 -3.9,2.1 -6.3,2.1l-3.9,0c-0.4,-2.1 -0.7,-4.3 -0.7,-6.5l0,-17l0.1,0zm80.8,17c0,17.6 -14.3,31.9 -31.9,31.9l-16.9,0c-8.5,0 -16.6,-3.3 -22.6,-9.4c-2.1,-2.1 -3.9,-4.5 -5.3,-7l25.4,-0.1c6.4,-0.4 12.1,-3.3 16,-7.7l24.8,-29.9c1,-1.2 3.7,-2 6.4,-2l3.3,0c0.5,2.4 0.8,4.8 0.8,7.3l0,16.9z" fill="#1F1D1D"/>
			<g>
				<g>
					<g>
						<g>
							<path d="m255.1,76.5c-7.7,3 -20.3,4.2 -22.9,4.3c-14.5,0.8 -34.8,-2.4 -34.8,-21c0,-19.2 20.2,-22.1 38.2,-21.2c4.7,0.2 14,1.8 19.5,3.7l-6.2,10.3c-4.6,-2.3 -10,-4.2 -14.7,-4.4c-8.5,-0.4 -19.6,1.5 -19.6,11.6c0,9.1 12.9,11.1 20.3,10.4c8,-0.8 9.6,-2.4 14.5,-4l5.7,10.3z" fill="#1F1D1D"/>
							<path id="svg_8" d="m186.5,52.5c-5.6,-2.6 -11.2,-4.3 -17.2,-4.7c-2.1,-0.2 -13.5,-1 -13.4,1.6c0.2,5.3 41.9,-0.3 39.3,19.3c-0.7,5.3 -6.3,12.3 -28.2,12.3c-5.6,0 -22.9,-2.6 -30.8,-6.5l7.1,-9.8c5.5,2.3 11.1,5.1 17.2,6c4.6,0.7 16.5,1.6 17,-1.3c0.9,-5.2 -40.9,-0.2 -39.4,-18.4c0.8,-9.3 13.9,-12.3 30.6,-12.3c8.8,0 16.4,1.5 25.3,4.1l-7.5,9.7z" fill="#1F1D1D"/>
							<path id="svg_9" d="m326.2,78.6l0,-36.8c0,0 7.4,-4.2 30,-4.2c6.1,0 27.7,1.2 27.7,13l0,0c0,4.5 -5.2,12.5 -14.9,13.6l18,14.4l-24.4,0l-19,-15.1l3.8,-7.3c12.8,3.3 18,0.6 18,-3.9c0,-4.6 -2.7,-5.2 -6.6,-5.2l-15.7,0l0,31.5l-16.9,0z" fill="#1F1D1D"/>
							<path id="svg_10" d="m300.1,39.8l-20.9,0l-23.9,38.8l13.7,0l5.4,-8.4l23.3,0l5.4,8.4l21,0c-7.2,-12.6 -17.1,-25.3 -24,-38.8zm-20.2,19.9l6.2,-10.8l6.2,10.8l-12.4,0z" fill="#1F1D1D"/>
							<path id="svg_11" d="m480.6,39.8l-20.9,0l-23.9,38.8l13.7,0l5.4,-8.4l23.3,0l5.4,8.4l21,0c-7.1,-12.6 -17.1,-25.3 -24,-38.8zm-20.1,19.9l6.2,-10.8l6.2,10.8l-12.4,0z" fill="#1F1D1D"/>
						</g>
	  					<path id="svg_12" d="m407.3,63.5l3.8,-7.3c12.8,3.3 18,0.6 18,-3.9c0,-4.6 -2.7,-5.2 -6.6,-5.2l-15.7,0l0,31.5l-17,0l0,-36.8c0,0 7.4,-4.2 30,-4.2c6.1,0 27.7,1.2 27.7,13l0,0c0,4.5 -4.9,14.1 -19.2,15.5c-9.6,1.2 -21,-2.6 -21,-2.6z" fill="#1F1D1D"/>
					</g>
					<path id="svg_13" d="m493.4,45.3c0,-3.1 2.5,-5.5 5.5,-5.5c3.1,0 5.5,2.5 5.5,5.5c0,3.1 -2.5,5.5 -5.5,5.5c-3.1,0.1 -5.5,-2.4 -5.5,-5.5zm9.8,0c0,-2.4 -1.9,-4.3 -4.3,-4.3c-2.4,0 -4.3,1.9 -4.3,4.3c0,2.4 1.9,4.3 4.3,4.3c2.4,0 4.3,-1.9 4.3,-4.3zm-1.5,3.1l-1.4,0l-1.3,-2.5l-1.1,0l0,2.5l-1.3,0l0,-6l3,0c1.4,0 2.3,0.2 2.3,1.8c0,1.1 -0.6,1.6 -1.6,1.6l1.4,2.6zm-2.1,-3.5c0.7,0 1,-0.1 1,-0.9c0,-0.7 -0.8,-0.7 -1.3,-0.7l-1.5,0l0,1.6l1.8,0z" fill="#1F1D1D"/>
    			</g>
			</g>
		</g>	
	</g>
</svg>