<?xml version="1.0" encoding="UTF-8"?>
<svg width="40px" height="40px" viewBox="0 0 40 40" version="1.1" xmlns="http://www.w3.org/2000/svg" xmlns:xlink="http://www.w3.org/1999/xlink">
    <!-- Generator: Sketch 48.2 (47327) - http://www.bohemiancoding.com/sketch -->
    <title>Twitter</title>
    <desc>Created with Sketch.</desc>
    <defs></defs>
    <g id="FOOTER" stroke="none" stroke-width="1" fill="none" fill-rule="evenodd" transform="translate(-1363.000000, -475.000000)">
        <g fill="#8D8B8B" id="Twitter">
            <path d="M1383,515 C1371.9543,515 1363,506.045696 1363,495 C1363,483.954304 1371.9543,475 1383,475 C1394.0457,475 1403,483.954304 1403,495 C1403,506.045696 1394.0457,515 1383,515 Z M1383,512.6 C1392.72021,512.6 1400.6,504.720212 1400.6,495 C1400.6,485.279788 1392.72021,477.4 1383,477.4 C1373.27979,477.4 1365.4,485.279788 1365.4,495 C1365.4,504.720212 1373.27979,512.6 1383,512.6 Z M1382.7458,491.443438 C1382.63135,489.739453 1382.7458,491.443438 1382.7458,491.443438 C1382.63135,489.739453 1383.63599,488.183058 1385.22561,487.579284 C1385.81059,487.364609 1386.80252,487.337774 1387.45108,487.525615 C1387.70542,487.606118 1388.18867,487.874462 1388.53203,488.115972 L1389.15516,488.55874 L1389.84187,488.330647 C1390.22338,488.209892 1390.73206,488.008634 1390.96097,487.874462 C1391.17716,487.753708 1391.36791,487.686622 1391.36791,487.726873 C1391.36791,487.954966 1390.89738,488.733163 1390.50316,489.162514 C1389.96904,489.766288 1390.12165,489.819957 1391.20259,489.417441 C1391.85116,489.189348 1391.86387,489.189348 1391.7367,489.444275 C1391.6604,489.578447 1391.26617,490.048049 1390.84651,490.4774 C1390.13436,491.215346 1390.09621,491.295849 1390.09621,491.91304 C1390.09621,492.865661 1389.66384,494.851407 1389.23146,495.9382 C1388.43029,497.977615 1386.7135,500.084116 1384.99671,501.144075 C1382.58048,502.633384 1379.36309,503.009066 1376.65438,502.136947 C1375.75147,501.841769 1374.2,501.090406 1374.2,500.956234 C1374.2,500.915982 1374.67053,500.862313 1375.24279,500.848896 C1376.43819,500.822062 1377.63358,500.473214 1378.65094,499.856023 L1379.33766,499.426673 L1378.5492,499.144912 C1377.43011,498.742396 1376.42547,497.816609 1376.17113,496.944491 C1376.09483,496.662729 1376.12026,496.649312 1376.83241,496.649312 L1377.57,496.635895 L1376.94687,496.327299 C1376.20928,495.9382 1375.53528,495.280758 1375.20464,494.609897 C1374.96302,494.126878 1374.65781,492.905913 1374.74683,492.811993 C1374.77226,492.771741 1375.03932,492.852244 1375.34453,492.959582 C1376.222,493.295012 1376.33645,493.214509 1375.82777,492.650986 C1374.874,491.631279 1374.58151,490.115135 1375.03932,488.679494 L1375.25551,488.035469 L1376.09483,488.907587 C1377.81162,490.66524 1379.83362,491.711782 1382.14811,492.020378 L1382.78396,492.100881 L1382.7458,491.443438 Z"></path>
        </g>
    </g>
</svg>